<?xml version="1.0" standalone="no"?>
<!DOCTYPE svg PUBLIC "-//W3C//DTD SVG 20010904//EN"
 "http://www.w3.org/TR/2001/REC-SVG-20010904/DTD/svg10.dtd">
<svg version="1.0" xmlns="http://www.w3.org/2000/svg"
 width="311.000000pt" height="341.000000pt" viewBox="0 0 311.000000 341.000000"
 preserveAspectRatio="xMidYMid meet">
<metadata>
Created by potrace 1.16, written by Peter Selinger 2001-2019
</metadata>
<g transform="translate(0.000000,341.000000) scale(0.100000,-0.100000)"
fill="#000000" stroke="none">
<path d="M1070 3003 c-69 -60 -394 -352 -482 -433 l-38 -35 0 -1060 0 -1060
787 -3 788 -2 50 41 c28 22 73 62 100 88 28 26 75 69 105 97 52 46 209 186
234 209 6 6 33 29 59 53 l47 42 -791 -2 -791 -3 3 255 c2 140 5 265 7 278 l4
22 390 0 c379 0 391 1 419 21 16 11 26 25 23 31 -4 6 -3 8 3 5 5 -3 20 4 34
16 13 12 76 67 139 121 63 54 139 119 169 145 30 25 74 61 97 80 24 18 41 38
37 44 -3 5 -1 7 4 4 6 -4 18 2 28 13 18 20 15 20 -664 20 l-681 0 2 275 3 276
465 -1 465 0 106 92 c109 96 344 307 433 390 l51 47 -765 0 -765 0 -75 -66z"/>
</g>
</svg>
